,
.   http://www.scenetime.com/signup.php  ---&gt;  Hottest scene tracker on the net !!!  

    Join Now   http://www.scenetime.com/signup.php

    seed back for speed


 



...................................NFO:.................................................   :::'###::::'##::: ##::::'###::::'########:::'######::'##::::'##:'##:::'##:
   ::'## ##::: ###:: ##:::'## ##::: ##.... ##:'##... ##: ##:::: ##:. ##:'##::
   :'##:. ##:: ####: ##::'##:. ##:: ##:::: ##: ##:::..:: ##:::: ##::. ####:::
   '##:::. ##: ## ## ##:'##:::. ##: ########:: ##::::::: #########:::. ##::::
    #########: ##. ####: #########: ##.. ##::: ##::::::: ##.... ##:::: ##::::
    ##.... ##: ##:. ###: ##.... ##: ##::. ##:: ##::: ##: ##:::: ##:::: ##::::
    ##:::: ##: ##::. ##: ##:::: ##: ##:::. ##:. ######:: ##:::: ##:::: ##::::
   ..:::::..::..::::..::..:::::..::..:::::..:::......:::..:::::..:::::..:::::

 
 
                                                                             
  Info ...                                                                   
  Title    : Wrong Turn 4 (2011) BRRip Xvid AC3-Anarchy                      
  Genre    : Action | Horror | Thriller                                      
  Language : English                                                         
  Subs     :                                                                 
  Size     : 1.01 GiB                                                        
  Source   : Bluray x264 japhson(Thanks)                                     
  Ripper   : fasamoo                                                         
 


   links ....
 &gt; RT       : http://www.rottentomatoes.com/m/wrong_turn_4/&lt;
 &gt; imdb     : http://www.imdb.com/title/tt1865567/&lt;
 &gt; youtube  :

 
                                                                             
  Plot ...                                                                   
  Follows a group of friends that decide to go snowmobiling during their     
  winter break. They make a "wrong turn", getting lost in a storm, and seek  
  shelter in an abandoned sanatorium. They are completely isolated by the    
  storm and are thankful they can get out of the elements. But the           
  sanatorium has a troubled past, and some of its former patients still      
  reside there and are not happy about the intrusion. In a deadly game of    
  cat and mouse, the college kids must fight to survive the night.           
                                                                             
 
 
 
                                                                             
  Video/Audio ...                                                            
  Video                                                                                                     
  ID                               : 0                                                                      
  Format                           : MPEG-4 Visual                                                          
  Format profile                   : Advanced Simple@L5                                                     
  Format settings, BVOP            : 2                                                                      
  Format settings, QPel            : No                                                                     
  Format settings, GMC             : No warppoints                                                          
  Format settings, Matrix          : Default (H.263)                                                        
  Muxing mode                      : Packed bitstream                                                       
  Codec ID                         : XVID                                                                   
  Codec ID/Hint                    : XviD                                                                   
  Duration                         : 1h 33mn                                                                
  Bit rate                         : 1 097 Kbps                                                             
  Width                            : 720 pixels                                                             
  Height                           : 416 pixels                                                             
  Display aspect ratio             : 16:9                                                                   
  Frame rate                       : 23.976 fps                                                             
  Color space                      : YUV                                                                    
  Chroma subsampling               : 4:2:0                                                                  
  Bit depth                        : 8 bits                                                                 
  Scan type                        : Progressive                                                            
  Compression mode                 : Lossy                                                                  
  Bits/(Pixel*Frame)               : 0.153                                                                  
  Stream size                      : 733 MiB (71%)                                                          
  Writing library                  : XviD 1.1.0 (UTC 2005-11-22)                                            
                                                                                                            
  Audio                                                                                                     
  ID                               : 1                                                                      
  Format                           : AC-3                                                                   
  Format/Info                      : Audio Coding 3                                                         
  Mode extension                   : CM (complete main)                                                     
  Codec ID                         : 2000                                                                   
  Duration                         : 1h 33mn                                                                
  Bit rate mode                    : Constant                                                               
  Bit rate                         : 448 Kbps                                                               
  Channel(s)                       : 6 channels                                                             
  Channel positions                : Front: L C R, Side: L R, LFE                                           
  Sampling rate                    : 48.0 KHz                                                               
  Bit depth                        : 16 bits                                                                
  Compression mode                 : Lossy                                                                  
  Stream size                      : 299 MiB (29%)                                                          
  Alignment                        : Split accross interleaves                                              
  Interleave, duration             : 42 ms (1.00 video frame)                                               
  Interleave, preload duration     : 500 ms                                                                 
                                                                             
 
              

                             Greets to all P2P groups